<?xml version="1.0" encoding="iso-8859-1"?>
<!-- Generator: Adobe Illustrator 19.1.0, SVG Export Plug-In . SVG Version: 6.00 Build 0)  -->
<svg version="1.1" id="Capa_1" xmlns="http://www.w3.org/2000/svg" xmlns:xlink="http://www.w3.org/1999/xlink" x="0px" y="0px"
	 viewBox="0 0 317.452 317.452" style="enable-background:new 0 0 317.452 317.452;" xml:space="preserve">
<g>
	<g id="Location_2_">
		<g>
			<path d="M158.726,56.688c-37.573,0-68.025,30.453-68.025,68.025s30.453,68.025,68.025,68.025s68.025-30.453,68.025-68.025
				S196.299,56.688,158.726,56.688z M158.726,170.064c-25.056,0-45.35-20.294-45.35-45.35s20.294-45.35,45.35-45.35
				s45.35,20.294,45.35,45.35S183.782,170.064,158.726,170.064z M158.726,0C89.839,0,34.013,58.865,34.013,131.493
				c0,36.303,13.968,69.182,36.53,92.991l88.184,92.968l88.184-92.968c22.562-23.809,36.53-56.688,36.53-92.991
				C283.439,58.865,227.613,0,158.726,0z M226.751,204.076l-68.025,79.363l-68.025-79.363c-45.736-45.078-45.056-102.106,0-147.388
				c42.176-42.357,93.422-41.949,136.051,0C272.056,101.267,272.759,158.635,226.751,204.076z"/>
		</g>
	</g>
</g>
<g>
</g>
<g>
</g>
<g>
</g>
<g>
</g>
<g>
</g>
<g>
</g>
<g>
</g>
<g>
</g>
<g>
</g>
<g>
</g>
<g>
</g>
<g>
</g>
<g>
</g>
<g>
</g>
<g>
</g>
</svg>
